<svg width="400" height="400" viewBox="0 0 400 400" fill="none" xmlns="http://www.w3.org/2000/svg">
<rect width="400" height="400" fill="#35424A"/>
<path d="M327 263.536C327 275.456 325.273 285.94 321.818 294.988C318.507 303.893 313.973 311.576 308.215 318.039C302.457 324.502 295.764 329.888 288.134 334.196C280.649 338.361 272.732 341.737 264.383 344.322C256.178 346.763 247.758 348.487 239.121 349.492C230.628 350.497 222.495 351 214.722 351H91V332.042L114.319 330.319C117.486 330.032 119.789 328.883 121.229 326.872C122.812 324.861 123.604 322.779 123.604 320.624V85.3755C123.604 83.2213 122.812 81.1388 121.229 79.1281C119.789 77.1174 117.486 75.9685 114.319 75.6812L91 73.9578V55H209.324C226.885 55 241.928 56.6516 254.451 59.9549C267.118 63.1145 277.482 67.7821 285.543 73.9578C293.604 80.1334 299.506 87.6016 303.249 96.3624C306.991 105.123 308.863 115.033 308.863 126.092C308.863 137.15 306.776 146.557 302.601 154.313C298.427 162.068 293.173 168.603 286.839 173.917C280.505 179.231 273.596 183.468 266.111 186.627C258.625 189.787 251.644 192.229 245.167 193.952C255.099 193.952 264.887 195.173 274.532 197.614C284.32 199.912 293.101 203.79 300.874 209.247C308.647 214.705 314.908 221.886 319.659 230.79C324.553 239.695 327 250.61 327 263.536ZM278.85 267.198C278.85 247.091 272.876 232.37 260.929 223.035C248.981 213.7 231.204 209.032 207.597 209.032C203.998 209.032 199.967 209.176 195.505 209.463C191.187 209.75 187.084 210.037 183.198 210.325C179.311 210.612 175.928 210.899 173.049 211.186C170.17 211.474 168.443 211.617 167.867 211.617V328.164C171.466 328.452 174.993 328.667 178.447 328.811C181.326 329.098 184.277 329.313 187.3 329.457C190.467 329.457 193.13 329.457 195.289 329.457C210.835 329.457 223.862 328.164 234.371 325.579C245.023 322.994 253.659 319.116 260.281 313.946C266.902 308.776 271.653 302.313 274.532 294.557C277.41 286.802 278.85 277.682 278.85 267.198ZM261.145 129.108C261.145 111.73 255.531 98.4449 244.303 89.2533C233.075 79.918 216.017 75.2504 193.13 75.2504C190.827 75.2504 188.308 75.3222 185.573 75.4658C182.982 75.6094 180.463 75.753 178.016 75.8967C175.712 76.0403 173.625 76.1839 171.754 76.3275C169.883 76.4711 168.587 76.5429 167.867 76.5429V188.135C169.883 188.279 171.898 188.351 173.913 188.351C175.64 188.494 177.368 188.566 179.095 188.566H183.845C198.24 188.566 210.331 187.274 220.12 184.688C230.052 181.96 238.041 178.082 244.087 173.055C250.133 168.029 254.451 161.853 257.042 154.528C259.777 147.06 261.145 138.587 261.145 129.108Z" fill="#C7BD74"/>
</svg>
