<svg xmlns="http://www.w3.org/2000/svg" width="230" height="42" fill="none"><path fill="#C7BD74" d="M19.373 17.863c0 .973-.14 1.828-.422 2.567a5.872 5.872 0 0 1-1.107 1.88 6.368 6.368 0 0 1-1.635 1.319c-.61.34-1.254.615-1.934.826-.668.2-1.353.34-2.056.422-.692.082-1.354.123-1.987.123H.16v-1.547l1.899-.14c.257-.024.445-.118.562-.282a.816.816 0 0 0 .193-.51V3.326a.816.816 0 0 0-.193-.51c-.117-.164-.305-.257-.562-.28L.16 2.394V.848h9.633c1.43 0 2.654.134 3.674.404 1.031.258 1.875.639 2.531 1.143a4.517 4.517 0 0 1 1.441 1.828c.305.715.457 1.523.457 2.425 0 .903-.17 1.67-.51 2.303a5.402 5.402 0 0 1-1.282 1.6 6.612 6.612 0 0 1-1.688 1.037 13.02 13.02 0 0 1-1.705.598c.809 0 1.605.1 2.39.298a6.123 6.123 0 0 1 2.145.95 4.955 4.955 0 0 1 1.53 1.757c.398.727.597 1.618.597 2.672Zm-3.92.3c0-1.642-.486-2.843-1.459-3.604-.973-.762-2.42-1.143-4.342-1.143-.293 0-.62.012-.984.035l-1.002.07c-.316.024-.592.047-.826.07a6.867 6.867 0 0 1-.422.036v9.51c.293.023.58.04.861.052.235.024.475.041.721.053h.65c1.266 0 2.327-.105 3.182-.316.867-.211 1.57-.528 2.11-.95.538-.421.925-.949 1.16-1.581.234-.633.351-1.377.351-2.233ZM14.012 6.894c0-1.418-.457-2.502-1.371-3.252C11.727 2.88 10.338 2.5 8.475 2.5c-.188 0-.393.006-.616.018l-.615.035c-.187.011-.357.023-.51.035a4.895 4.895 0 0 1-.316.017v9.106c.164.012.328.018.492.018.14.011.281.017.422.017h.387c1.172 0 2.156-.105 2.953-.316.808-.223 1.459-.54 1.951-.95.492-.41.844-.914 1.055-1.511.222-.61.334-1.301.334-2.074ZM45.705 12.941c0 1.746-.281 3.387-.844 4.922-.562 1.535-1.359 2.877-2.39 4.026a11.248 11.248 0 0 1-3.692 2.707c-1.441.656-3.04.984-4.799.984-1.77 0-3.38-.316-4.833-.95a11.02 11.02 0 0 1-3.71-2.671c-1.03-1.137-1.828-2.473-2.39-4.008-.563-1.547-.844-3.228-.844-5.045 0-1.758.276-3.404.826-4.94.551-1.534 1.336-2.87 2.356-4.007a10.926 10.926 0 0 1 3.691-2.707c1.453-.656 3.076-.984 4.87-.984 1.78 0 3.392.334 4.833 1.002a11.084 11.084 0 0 1 3.71 2.724c1.03 1.149 1.822 2.49 2.372 4.026.563 1.535.844 3.175.844 4.921Zm-4.166.036c0-1.465-.158-2.842-.474-4.131-.317-1.301-.792-2.432-1.424-3.393-.633-.973-1.424-1.734-2.373-2.285-.938-.563-2.034-.844-3.288-.844-1.3 0-2.431.281-3.392.844a7.119 7.119 0 0 0-2.39 2.303c-.634.96-1.102 2.086-1.407 3.375a17.454 17.454 0 0 0-.457 4.06c0 1.442.152 2.813.457 4.114.316 1.289.785 2.42 1.406 3.392a7.413 7.413 0 0 0 2.356 2.32c.949.575 2.062.862 3.34.862 1.3 0 2.425-.287 3.375-.862a7.35 7.35 0 0 0 2.39-2.302c.633-.973 1.102-2.098 1.407-3.375.316-1.29.474-2.649.474-4.078ZM64.478 18.232c0 .915-.181 1.811-.544 2.69-.352.879-.914 1.664-1.688 2.355-.773.692-1.764 1.248-2.97 1.67-1.208.422-2.655.633-4.342.633-.985 0-1.87-.07-2.655-.21a20.078 20.078 0 0 1-2.004-.458c-.644-.2-1.224-.422-1.74-.668v-6.38h2.268l.474 4.077c.024.141.094.293.211.457.13.165.258.276.387.334l.299.159c.176.082.416.175.72.28.305.095.674.183 1.108.265.445.082.95.123 1.512.123.761 0 1.464-.094 2.109-.282.656-.199 1.219-.48 1.688-.843a3.759 3.759 0 0 0 1.09-1.336c.269-.528.404-1.125.404-1.793 0-.727-.211-1.36-.633-1.899a6.24 6.24 0 0 0-1.565-1.459c-.62-.433-1.3-.82-2.039-1.16-.738-.34-1.435-.668-2.091-.984a39.97 39.97 0 0 1-2.127-1.09 8.778 8.778 0 0 1-1.776-1.3 5.798 5.798 0 0 1-1.213-1.724c-.293-.668-.44-1.459-.44-2.373 0-1.066.212-2.033.634-2.9a6.557 6.557 0 0 1 1.74-2.215c.75-.62 1.629-1.096 2.637-1.424 1.02-.34 2.12-.51 3.304-.51a14.625 14.625 0 0 1 3.393.387c.504.106.973.229 1.406.37.434.128.844.251 1.23.369l.317.105v5.607h-2.057l-.544-3.445a.446.446 0 0 0-.229-.351 2.494 2.494 0 0 1-.334-.282 3.501 3.501 0 0 0-.281-.175 2.881 2.881 0 0 0-.598-.282 5.532 5.532 0 0 0-.932-.246 7.234 7.234 0 0 0-1.318-.105c-.727 0-1.377.105-1.951.316-.574.211-1.06.51-1.46.897-.398.375-.708.82-.93 1.336a4.413 4.413 0 0 0-.317 1.687c0 .55.105 1.055.316 1.512.223.445.545.861.967 1.248.434.375.961.726 1.582 1.055.621.328 1.336.644 2.145.949 1.09.41 2.056.838 2.9 1.283.856.445 1.57.943 2.145 1.494a5.7 5.7 0 0 1 1.336 1.863c.304.68.456 1.471.456 2.373ZM83.252 18.232c0 .915-.182 1.811-.545 2.69-.351.879-.914 1.664-1.688 2.355-.773.692-1.763 1.248-2.97 1.67-1.207.422-2.655.633-4.342.633-.984 0-1.87-.07-2.654-.21a20.078 20.078 0 0 1-2.004-.458c-.645-.2-1.225-.422-1.74-.668v-6.38h2.267l.475 4.077c.023.141.093.293.21.457.13.165.258.276.387.334l.3.159c.175.082.415.175.72.28.305.095.674.183 1.107.265.446.082.95.123 1.512.123.762 0 1.465-.094 2.11-.282.656-.199 1.218-.48 1.687-.843a3.76 3.76 0 0 0 1.09-1.336c.27-.528.404-1.125.404-1.793 0-.727-.21-1.36-.633-1.899a6.238 6.238 0 0 0-1.564-1.459c-.621-.433-1.3-.82-2.04-1.16-.737-.34-1.435-.668-2.091-.984a39.97 39.97 0 0 1-2.127-1.09 8.78 8.78 0 0 1-1.775-1.3 5.798 5.798 0 0 1-1.213-1.724c-.293-.668-.44-1.459-.44-2.373 0-1.066.211-2.033.633-2.9a6.558 6.558 0 0 1 1.74-2.215c.75-.62 1.63-1.096 2.637-1.424 1.02-.34 2.121-.51 3.305-.51a14.624 14.624 0 0 1 3.392.387c.504.106.973.229 1.407.37.433.128.843.251 1.23.369l.317.105v5.607h-2.057l-.545-3.445a.446.446 0 0 0-.229-.351 2.5 2.5 0 0 1-.334-.282 3.494 3.494 0 0 0-.28-.175 2.885 2.885 0 0 0-.599-.282 5.531 5.531 0 0 0-.931-.246 7.236 7.236 0 0 0-1.319-.105c-.726 0-1.376.105-1.95.316-.575.211-1.061.51-1.46.897a3.98 3.98 0 0 0-.931 1.336 4.415 4.415 0 0 0-.317 1.687c0 .55.106 1.055.317 1.512.222.445.545.861.966 1.248.434.375.961.726 1.582 1.055.622.328 1.337.644 2.145.949a25.4 25.4 0 0 1 2.9 1.283c.856.445 1.57.943 2.145 1.494a5.7 5.7 0 0 1 1.336 1.863c.305.68.457 1.471.457 2.373ZM85.871 25v-1.547l2.145-.14c.257-.024.445-.118.562-.282a.816.816 0 0 0 .194-.51V3.326a.748.748 0 0 0-.194-.492c-.117-.152-.305-.24-.562-.264l-2.145-.14V.848h9.492V2.43l-2.197.14c-.246.024-.434.112-.563.264a.748.748 0 0 0-.193.492v19.195c0 .176.065.346.194.51.128.164.316.258.562.282l2.197.14V25h-9.492ZM119.463 2.535c-.258.024-.451.117-.58.281a.868.868 0 0 0-.176.51V25h-2.812L102.5 4.838V22.52c0 .176.059.346.176.51.129.164.322.258.58.282l2.056.14V25h-7.787v-1.547l2.057-.14c.258-.024.451-.118.58-.282a.775.775 0 0 0 .211-.51V3.326a.776.776 0 0 0-.211-.51c-.129-.164-.322-.257-.58-.28l-2.127-.141V.848h7.137v.896L116.58 19.85V3.326a.815.815 0 0 0-.193-.51c-.129-.164-.317-.257-.563-.28l-2.056-.141V.848h7.699v1.547l-2.004.14ZM144.828 15.068c-.258.024-.451.112-.58.264a.747.747 0 0 0-.176.492v8.315c-.726.27-1.5.51-2.32.72-.703.188-1.512.352-2.426.493-.902.152-1.84.228-2.812.228-1.336 0-2.578-.158-3.727-.474a12.151 12.151 0 0 1-3.111-1.337 11.518 11.518 0 0 1-2.461-2.038 12.768 12.768 0 0 1-1.811-2.602 13.067 13.067 0 0 1-1.09-2.988 14.498 14.498 0 0 1-.369-3.27c0-1.887.299-3.603.897-5.15.597-1.559 1.459-2.889 2.584-3.99 1.125-1.102 2.49-1.952 4.095-2.55 1.618-.609 3.434-.913 5.45-.913.609 0 1.195.035 1.758.105.574.059 1.125.14 1.652.246.527.094 1.043.205 1.547.334l1.511.387.598.158v5.818h-2.162l-.58-3.234a.941.941 0 0 0-.264-.527 1.342 1.342 0 0 0-.457-.334 1.171 1.171 0 0 1-.211-.088c-.187-.082-.404-.17-.65-.264a8.689 8.689 0 0 0-.826-.264 6.921 6.921 0 0 0-2.057-.316c-1.301 0-2.49.229-3.568.686a7.619 7.619 0 0 0-2.778 2.004c-.773.878-1.377 1.968-1.81 3.269-.422 1.29-.633 2.772-.633 4.447 0 1.723.217 3.258.65 4.606.434 1.347 1.049 2.484 1.846 3.41a8.097 8.097 0 0 0 2.918 2.127c1.137.48 2.408.72 3.815.72.398 0 .779-.029 1.142-.087.363-.059.686-.117.967-.176.281-.07.516-.135.703-.193a1.75 1.75 0 0 1 .352-.088v-7.19a.706.706 0 0 0-.194-.492c-.117-.152-.304-.24-.562-.264l-2.408-.175v-1.565h9.386v1.565l-1.828.175ZM164.059 25v-1.547l2.056-.14c.246-.024.434-.118.563-.282a.815.815 0 0 0 .193-.51v-9.298h-11.848v9.298c0 .176.059.346.176.51.129.164.322.258.58.282l2.057.14V25h-9.106v-1.547l1.864-.14c.258-.024.451-.118.58-.282.14-.164.211-.334.211-.51V3.326a.718.718 0 0 0-.211-.492c-.129-.152-.322-.24-.58-.264l-1.864-.14V.848h9.106V2.43l-2.057.14c-.258.024-.451.112-.58.264a.793.793 0 0 0-.176.492v8.104h11.848V3.326a.747.747 0 0 0-.193-.492c-.129-.152-.317-.24-.563-.264l-2.056-.14V.848h9.105V2.43l-1.863.14c-.258.024-.457.112-.598.264a.747.747 0 0 0-.193.492v19.195c0 .176.064.346.193.51.141.164.34.258.598.282l1.863.14V25h-9.105ZM189.846 25v-1.547l2.074-.176c.094 0 .182-.058.264-.175a.67.67 0 0 0 .123-.352c0-.047-.006-.076-.018-.088l-2.478-6.592h-8.315l-2.391 6.487a.258.258 0 0 0-.017.105c0 .14.058.281.176.422.129.129.246.193.351.193l2.127.176V25H174.5v-1.547l2.092-.44L184.977.269h2.707l8.349 22.218c.082.246.158.41.229.492.082.082.258.147.527.194l1.617.281V25h-8.56Zm-4.219-20.092-3.498 9.44h7.031l-3.533-9.44ZM219.922 25v-1.547l1.916-.14c.258-.024.451-.118.58-.282a.775.775 0 0 0 .211-.51V2.677L214.35 25h-1.793l-7.998-21.99V22.52c0 .176.064.346.193.51.141.164.34.258.598.282l2.056.14V25h-7.787v-1.547l2.057-.14c.258-.024.445-.118.562-.282a.816.816 0 0 0 .194-.51V3.326a.817.817 0 0 0-.194-.51c-.117-.164-.304-.257-.562-.28l-2.057-.141V.848h8.069v.966l6.521 17.684L220.73 1.92V.848h8.28v1.547l-1.951.14c-.258.024-.457.117-.598.281a.815.815 0 0 0-.193.51v19.195c0 .176.064.346.193.51.141.164.34.258.598.282l1.951.14V25h-9.088Z"/><path fill="#fff" d="M47.578 38.008h1.996v2.77c-.3.1-.608.176-.926.226a6.86 6.86 0 0 1-1.059.074c-.593 0-1.095-.118-1.503-.355a2.295 2.295 0 0 1-.926-1.012c-.211-.44-.317-.962-.317-1.566 0-.592.116-1.107.348-1.547.234-.44.572-.782 1.012-1.024.442-.245.974-.367 1.593-.367a4.364 4.364 0 0 1 1.7.336l-.254.578a4.67 4.67 0 0 0-.7-.234 3.134 3.134 0 0 0-.785-.098c-.466 0-.865.096-1.199.29-.33.192-.584.464-.761.816-.175.351-.262.768-.262 1.25 0 .476.077.891.23 1.246.154.351.393.625.719.82.325.195.745.293 1.258.293.258 0 .479-.014.664-.043.185-.031.353-.068.504-.11v-1.75h-1.332v-.593ZM53.14 35.29c.468 0 .855.058 1.16.175.307.114.536.29.687.527.151.237.227.54.227.906 0 .302-.055.555-.164.758-.11.2-.253.364-.43.489a2.197 2.197 0 0 1-.566.289L55.62 41h-.773l-1.399-2.383h-1.187V41h-.664v-5.71h1.543Zm-.04.573h-.84v2.192h.907c.466 0 .809-.095 1.027-.285.222-.19.332-.47.332-.84 0-.388-.117-.663-.351-.825-.232-.161-.59-.242-1.074-.242ZM62.127 38.137c0 .44-.056.84-.168 1.203-.112.36-.278.67-.5.93-.218.257-.49.457-.816.597-.326.14-.703.211-1.133.211-.443 0-.83-.07-1.16-.21a2.17 2.17 0 0 1-.82-.602 2.635 2.635 0 0 1-.489-.934 4.242 4.242 0 0 1-.16-1.203c0-.583.096-1.095.29-1.535a2.24 2.24 0 0 1 .874-1.028c.393-.244.886-.367 1.477-.367.565 0 1.04.121 1.426.364.388.242.68.583.879 1.023.2.437.3.954.3 1.55Zm-4.547 0c0 .484.07.903.207 1.258.139.354.35.627.633.82.287.193.65.289 1.09.289.443 0 .805-.096 1.086-.29.284-.192.494-.465.629-.82.135-.354.203-.773.203-1.257 0-.737-.155-1.313-.465-1.727-.307-.416-.788-.625-1.441-.625-.443 0-.807.095-1.094.285-.286.19-.5.461-.64.813-.139.349-.208.767-.208 1.254ZM68.361 35.29v3.694a2.3 2.3 0 0 1-.246 1.078 1.763 1.763 0 0 1-.734.747c-.329.18-.74.27-1.235.27-.706 0-1.243-.192-1.613-.575-.367-.383-.55-.895-.55-1.535v-3.68h.667v3.7c0 .484.128.857.383 1.12.258.263.642.395 1.152.395.35 0 .634-.063.856-.188.224-.127.389-.304.496-.53.11-.23.164-.494.164-.794V35.29h.66ZM74.981 41h-.765l-3.113-4.797h-.032l.028.438c.01.161.018.334.023.52.008.181.012.368.012.558V41h-.617v-5.71h.761l3.102 4.78h.027a40.39 40.39 0 0 1-.043-.93 20.496 20.496 0 0 1-.008-.542v-3.309h.626V41ZM81.715 38.09c0 .643-.117 1.18-.351 1.613-.235.43-.575.754-1.02.973-.442.216-.98.324-1.613.324h-1.55v-5.71h1.722c.58 0 1.08.106 1.5.32.419.21.742.524.968.94.23.415.344.928.344 1.54Zm-.699.023c0-.513-.086-.936-.258-1.27-.169-.333-.419-.58-.75-.741-.328-.164-.73-.246-1.207-.246h-.957v4.574h.809c.786 0 1.376-.194 1.77-.582.395-.388.593-.966.593-1.735ZM90.113 35.29 88.586 41h-.668l-1.133-3.844c-.034-.11-.066-.218-.098-.328a54.925 54.925 0 0 0-.082-.316l-.066-.266-.035-.176c-.005.04-.016.097-.032.172a4.496 4.496 0 0 1-.054.262 5.07 5.07 0 0 1-.078.316c-.029.112-.06.226-.094.34L85.144 41h-.668l-1.515-5.71h.691l.918 3.581c.031.12.06.238.086.356.029.114.053.226.074.336a8.852 8.852 0 0 1 .114.624c.013-.101.03-.206.05-.316.021-.112.043-.225.067-.34.026-.114.053-.23.082-.347.031-.118.064-.235.097-.352l1.028-3.543h.683l1.07 3.57c.037.123.071.244.102.364.032.12.059.237.082.351.026.112.048.22.067.324.02.102.039.198.054.29a13.329 13.329 0 0 1 .156-.844c.037-.154.076-.313.118-.477l.918-3.578h.695ZM96.609 38.137c0 .44-.056.84-.168 1.203a2.62 2.62 0 0 1-.5.93c-.22.257-.491.457-.817.597-.325.14-.703.211-1.133.211-.442 0-.83-.07-1.16-.21a2.168 2.168 0 0 1-.82-.602 2.635 2.635 0 0 1-.488-.934 4.242 4.242 0 0 1-.16-1.203c0-.583.096-1.095.288-1.535a2.24 2.24 0 0 1 .876-1.028c.393-.244.885-.367 1.476-.367.565 0 1.04.121 1.426.364.388.242.68.583.879 1.023.2.437.3.954.3 1.55Zm-4.547 0c0 .484.069.903.207 1.258.138.354.349.627.632.82.287.193.65.289 1.09.289.443 0 .805-.096 1.086-.29.284-.192.494-.465.63-.82.135-.354.202-.773.202-1.257 0-.737-.155-1.313-.465-1.727-.307-.416-.787-.625-1.44-.625-.444 0-.808.095-1.095.285-.286.19-.5.461-.64.813-.138.349-.207.767-.207 1.254ZM100.065 35.29c.469 0 .855.058 1.16.175.307.114.537.29.688.527.151.237.226.54.226.906 0 .302-.055.555-.164.758-.109.2-.252.364-.43.489a2.185 2.185 0 0 1-.566.289L102.545 41h-.773l-1.398-2.383h-1.188V41h-.664v-5.71h1.543Zm-.039.573h-.84v2.192h.906c.466 0 .809-.095 1.028-.285.221-.19.332-.47.332-.84 0-.388-.118-.663-.352-.825-.232-.161-.59-.242-1.074-.242ZM108.217 41h-.785l-2.059-2.777-.609.547V41h-.665v-5.71h.665v2.847c.148-.17.3-.337.457-.504.156-.17.311-.34.464-.512l1.668-1.832h.778l-2.274 2.477 2.36 3.234ZM112.861 39.48c0 .339-.085.628-.254.868a1.568 1.568 0 0 1-.703.543 2.783 2.783 0 0 1-1.067.187c-.216 0-.42-.01-.613-.031a4.15 4.15 0 0 1-.531-.09 2.234 2.234 0 0 1-.426-.145v-.636c.195.08.433.156.715.226.281.068.575.102.882.102.287 0 .529-.038.727-.113a.963.963 0 0 0 .449-.332.878.878 0 0 0 .157-.524.868.868 0 0 0-.129-.488c-.086-.133-.23-.253-.43-.36a5.662 5.662 0 0 0-.813-.347 4.363 4.363 0 0 1-.64-.281 1.997 1.997 0 0 1-.465-.352 1.322 1.322 0 0 1-.285-.453 1.708 1.708 0 0 1-.094-.59c0-.305.077-.565.231-.781.156-.219.371-.386.644-.5.276-.117.592-.176.949-.176.305 0 .586.029.844.086.26.057.499.134.715.23l-.207.57a4.536 4.536 0 0 0-.656-.214 2.93 2.93 0 0 0-.711-.086c-.245 0-.452.036-.621.11a.842.842 0 0 0-.383.3.803.803 0 0 0-.133.465c0 .2.042.367.125.5.086.133.221.251.406.355.188.102.435.209.742.32.336.123.621.253.856.391.234.136.413.302.535.5.122.196.184.444.184.746ZM119.039 35.2c.281 0 .523.049.727.148.205.096.363.235.472.418.112.182.168.402.168.66 0 .338-.11.625-.332.86a3.5 3.5 0 0 1-.836.64l1.586 1.539c.143-.167.261-.36.352-.578.091-.222.168-.461.23-.719h.656a5.17 5.17 0 0 1-.324.95c-.13.288-.294.542-.492.76L122.391 41h-.879l-.707-.691c-.167.153-.347.289-.539.406a2.569 2.569 0 0 1-.637.27 3.075 3.075 0 0 1-.797.093c-.365 0-.681-.06-.949-.18a1.398 1.398 0 0 1-.625-.527c-.146-.232-.219-.516-.219-.852 0-.276.051-.512.152-.71.102-.198.246-.374.434-.528.187-.153.411-.303.672-.449a8.318 8.318 0 0 1-.348-.41 2.007 2.007 0 0 1-.265-.45 1.355 1.355 0 0 1-.102-.53c0-.261.059-.484.176-.669a1.16 1.16 0 0 1 .504-.425 1.87 1.87 0 0 1 .777-.149Zm-.352 3.042a4.476 4.476 0 0 0-.523.348 1.285 1.285 0 0 0-.332.387 1.096 1.096 0 0 0-.113.52c0 .304.103.549.308.733.206.183.481.274.825.274.354 0 .654-.059.902-.176.25-.117.462-.259.637-.426l-1.704-1.66Zm.329-2.508c-.237 0-.43.063-.579.188-.145.122-.218.294-.218.516 0 .197.053.38.16.546.107.167.259.352.457.555.325-.18.561-.353.707-.52a.875.875 0 0 0 .223-.593.65.65 0 0 0-.207-.5c-.136-.128-.317-.192-.543-.192ZM126.573 41v-5.71h.664v5.116h2.535V41h-3.199ZM134.975 41l-.703-1.813h-2.29L131.283 41h-.672l2.235-5.734h.597L135.662 41h-.687Zm-.903-2.402-.668-1.801a11.579 11.579 0 0 0-.078-.23 78.82 78.82 0 0 0-.195-.61 7.553 7.553 0 0 1-.086.32 8.417 8.417 0 0 1-.086.293l-.074.227-.68 1.8h1.867ZM141.56 41h-.766l-3.113-4.797h-.031l.027.438c.011.161.018.334.024.52.007.181.011.368.011.558V41h-.617v-5.71h.762l3.101 4.78h.028l-.02-.386-.023-.543a21.439 21.439 0 0 1-.008-.543v-3.309h.625V41ZM148.294 38.09c0 .643-.117 1.18-.352 1.613-.234.43-.574.754-1.019.973-.443.216-.981.324-1.614.324h-1.55v-5.71h1.722c.581 0 1.081.106 1.5.32.419.21.742.524.969.94.229.415.344.928.344 1.54Zm-.7.023c0-.513-.085-.936-.257-1.27-.17-.333-.42-.58-.75-.741-.328-.164-.731-.246-1.207-.246h-.957v4.574h.808c.787 0 1.376-.194 1.77-.582.396-.388.593-.966.593-1.735ZM153.426 39.48c0 .339-.085.628-.254.868a1.568 1.568 0 0 1-.703.543 2.78 2.78 0 0 1-1.067.187c-.216 0-.42-.01-.613-.031a4.15 4.15 0 0 1-.531-.09 2.259 2.259 0 0 1-.426-.145v-.636a5.2 5.2 0 0 0 .715.226c.281.068.575.102.883.102.286 0 .528-.038.726-.113a.971.971 0 0 0 .45-.332.878.878 0 0 0 .156-.524.868.868 0 0 0-.129-.488c-.086-.133-.229-.253-.43-.36a5.692 5.692 0 0 0-.812-.347 4.378 4.378 0 0 1-.641-.281 1.997 1.997 0 0 1-.465-.352 1.322 1.322 0 0 1-.285-.453 1.732 1.732 0 0 1-.094-.59c0-.305.077-.565.231-.781.156-.219.371-.386.644-.5.276-.117.593-.176.95-.176.304 0 .586.029.843.086a3.7 3.7 0 0 1 .715.23l-.207.57a4.496 4.496 0 0 0-.656-.214 2.918 2.918 0 0 0-.711-.086c-.245 0-.452.036-.621.11a.847.847 0 0 0-.383.3.803.803 0 0 0-.133.465c0 .2.042.367.125.5.086.133.222.251.406.355.188.102.435.209.743.32.336.123.621.253.855.391.235.136.413.302.535.5.123.196.184.444.184.746ZM157.675 35.793a2.12 2.12 0 0 0-.851.164c-.25.107-.464.263-.641.469-.174.203-.309.449-.402.738a3.15 3.15 0 0 0-.141.977c0 .479.074.895.223 1.25.151.351.375.623.672.816.299.193.673.29 1.121.29.255 0 .495-.022.718-.063.227-.045.447-.1.661-.164v.578a3.375 3.375 0 0 1-.657.172 4.92 4.92 0 0 1-.816.058c-.581 0-1.066-.12-1.457-.36a2.247 2.247 0 0 1-.875-1.023c-.193-.44-.289-.96-.289-1.558 0-.433.06-.827.18-1.184.122-.36.299-.67.531-.93.234-.26.521-.46.859-.601a3.004 3.004 0 0 1 1.172-.215c.289 0 .568.029.836.086.268.057.51.14.727.246l-.266.563a3.942 3.942 0 0 0-.602-.215 2.519 2.519 0 0 0-.703-.094ZM164.495 41l-.703-1.813h-2.289L160.804 41h-.672l2.234-5.734h.598L165.182 41h-.687Zm-.902-2.402-.668-1.801a74.294 74.294 0 0 1-.078-.23l-.106-.333a12.387 12.387 0 0 0-.09-.277 6.3 6.3 0 0 1-.086.32 6.68 6.68 0 0 1-.086.293l-.074.227-.68 1.8h1.868ZM168.108 35.29c.737 0 1.274.144 1.613.433.341.286.512.698.512 1.234 0 .242-.041.473-.121.691a1.477 1.477 0 0 1-.383.575c-.177.164-.41.294-.7.39-.286.094-.638.14-1.054.14h-.696V41h-.664v-5.71h1.493Zm-.063.566h-.766v2.328h.622c.364 0 .668-.04.91-.118.245-.078.428-.204.551-.379.122-.177.183-.411.183-.703 0-.38-.121-.662-.363-.847-.242-.188-.621-.282-1.137-.282ZM172.068 41v-5.71h.664V41h-.664ZM179.407 41h-.765l-3.114-4.797h-.031l.027.438c.011.161.019.334.024.52.008.181.011.368.011.558V41h-.617v-5.71h.762l3.102 4.78h.027l-.02-.386-.023-.543a21.439 21.439 0 0 1-.008-.543v-3.309h.625V41ZM184.047 38.008h1.996v2.77a5.506 5.506 0 0 1-.926.226c-.315.05-.668.074-1.058.074-.594 0-1.095-.118-1.504-.355a2.298 2.298 0 0 1-.926-1.012c-.211-.44-.316-.962-.316-1.566 0-.592.116-1.107.347-1.547.235-.44.572-.782 1.012-1.024.443-.245.974-.367 1.594-.367a4.359 4.359 0 0 1 1.699.336l-.254.578a4.68 4.68 0 0 0-.699-.234 3.134 3.134 0 0 0-.785-.098c-.466 0-.866.096-1.199.29a1.923 1.923 0 0 0-.762.816c-.175.351-.262.768-.262 1.25 0 .476.077.891.231 1.246.153.351.393.625.718.82.326.195.745.293 1.258.293.258 0 .479-.014.664-.043.185-.031.353-.068.504-.11v-1.75h-1.332v-.593Z"/></svg>