<svg xmlns="http://www.w3.org/2000/svg" width="210" height="42" fill="none"><g fill-rule="evenodd" clip-path="url(#a)" clip-rule="evenodd"><path fill="#9F0000" d="M9.309 32.658c0-.551 0-.992.01-1.322.012-.386.122-.573.42-.628.132-.022.209-.034.297-.034.077 0 .143-.022.143-.088 0-.088-.077-.11-.22-.11-.364 0-.948.033-1.29.033-.33 0-1.024-.033-1.597-.033-.154 0-.231.022-.231.11 0 .066.066.088.165.088.154 0 .341.012.43.034.363.077.462.253.473.628.011.33.011.749.011 1.3v1.035c0 .188-.044.331-.209.408-.264.121-.65.121-.937.121-2.325 0-3.834-1.774-3.834-4.143 0-1.355.397-2.181 1.014-2.7.77-.638 1.575-.682 2.181-.682 1.245 0 2.127.506 2.458.86.286.308.341.66.374.914.011.088.033.143.11.143.088 0 .122-.055.122-.232 0-1.377.077-1.685.077-1.807 0-.077-.022-.12-.155-.132a7.213 7.213 0 0 1-.87-.121c-.22-.044-1.19-.176-1.95-.176-.926 0-1.907.077-2.964.716-1.003.606-1.918 1.84-1.918 3.603 0 3.041 2.391 4.32 5.091 4.32.86 0 1.94-.122 2.655-.496.133-.078.144-.1.144-.397v-1.212ZM12.163 31.887c0 .859 0 1.597-.044 1.994-.033.275-.089.452-.287.496a1.428 1.428 0 0 1-.341.033c-.122 0-.155.055-.155.1 0 .065.066.098.188.098.385 0 1.002-.033 1.19-.033.143 0 .947.033 1.51.033.12 0 .197-.033.197-.099 0-.044-.043-.1-.12-.1-.122 0-.331-.01-.475-.032-.297-.044-.341-.22-.374-.496-.044-.397-.055-1.124-.055-1.994v-.133c0-.055.033-.077.077-.077l.87.022c.067 0 .122.011.177.066.12.144.529.772.914 1.279.54.727.904 1.168 1.322 1.377.254.132.518.187 1.058.187h.926c.121 0 .187-.022.187-.099 0-.044-.044-.1-.121-.1s-.132 0-.231-.021c-.155-.033-.496-.077-1.036-.617-.584-.584-1.267-1.433-2.127-2.49.948-.76 1.345-1.378 1.345-2.072 0-.628-.408-1.102-.684-1.29-.518-.34-1.223-.396-1.84-.396-.297 0-1.179.022-1.51.022-.198 0-.815-.022-1.322-.022-.143 0-.22.022-.22.088s.066.1.165.1c.144 0 .309.01.386.033.308.088.397.187.419.506.01.298.01.562.01 1.984v1.653Zm1.234-3.714c0-.077.022-.11.088-.132.1-.022.33-.033.573-.033.573 0 1.476.342 1.476 1.664 0 .771-.33 1.179-.628 1.388-.165.121-.297.154-.683.154-.242 0-.529-.022-.738-.088-.066-.033-.088-.066-.088-.165v-2.788ZM22.796 34.73c2.501 0 4.066-1.686 4.066-3.835s-1.52-3.504-3.967-3.504c-2.942 0-4.066 2.071-4.066 3.67 0 1.663 1.146 3.668 3.967 3.668Zm.396-.508c-1.829 0-2.93-1.52-2.93-3.448 0-2.314 1.267-2.887 2.346-2.887 1.565 0 2.81 1.278 2.81 3.35 0 2.666-1.542 2.985-2.226 2.985ZM28.801 31.611c0 1.355.386 2.05.882 2.48.705.616 1.707.638 2.214.638.628 0 1.367-.099 2.05-.672.815-.672.925-1.774.925-2.82v-1.003c0-1.422.011-1.686.022-1.984.022-.33.089-.462.353-.506.121-.023.176-.034.286-.034.11 0 .166-.033.166-.099s-.066-.088-.199-.088c-.374 0-1.024.022-1.135.022-.01 0-.66-.022-1.157-.022-.132 0-.198.022-.198.088s.055.1.165.1c.11 0 .276.01.353.033.309.088.386.187.408.506.01.298.022.562.022 1.984v1.179c0 .958-.022 1.774-.562 2.28-.386.375-.882.497-1.3.497-.331 0-.794-.034-1.223-.375-.474-.375-.739-.904-.739-2.27v-1.311c0-1.422 0-1.686.022-1.984.022-.33.1-.462.353-.506.121-.023.176-.034.286-.034.1 0 .155-.033.155-.099s-.066-.088-.21-.088c-.352 0-1.002.022-1.245.022-.286 0-.936-.022-1.454-.022-.144 0-.21.022-.21.088s.055.1.166.1c.132 0 .297.01.374.033.309.088.397.176.419.506.022.298.011.562.011 1.984v1.377ZM38.09 29.506h.033c.187.166 1.212 1.3 2.27 2.314 1.013.981 2.225 2.138 2.831 2.7.1.1.232.198.397.198.077 0 .154-.088.154-.297l.11-5.906c.012-.53.089-.695.353-.772.121-.033.199-.033.298-.033.11 0 .165-.044.165-.099 0-.077-.088-.088-.22-.088-.474 0-.838.022-.948.022-.21 0-.727-.022-1.234-.022-.143 0-.242.011-.242.088 0 .055.033.1.154.1.132 0 .363 0 .507.054.231.089.32.254.33.827l.1 4.165h-.045c-.143-.132-1.432-1.454-2.093-2.105-1.41-1.377-2.865-2.864-2.986-2.986-.166-.165-.298-.308-.419-.308-.1 0-.165.132-.165.32l-.088 5.553c-.011.815-.045 1.069-.298 1.135a1.997 1.997 0 0 1-.44.044c-.089 0-.155.044-.155.099 0 .088.088.1.22.1.496 0 .959-.034 1.047-.034.177 0 .628.033 1.256.033.133 0 .22-.022.22-.1 0-.054-.054-.098-.165-.098-.154 0-.341-.011-.506-.066-.188-.066-.309-.287-.331-1.014l-.11-3.824ZM47.081 31.887c0 .859 0 1.597-.044 1.994-.033.275-.088.452-.286.496a1.43 1.43 0 0 1-.342.033c-.121 0-.154.055-.154.099 0 .066.066.1.187.1.198 0 .44-.012.672-.023.232 0 .44-.01.551-.01.243 0 .595.021.98.054.386.022.805.055 1.158.055 1.785 0 2.81-.66 3.25-1.102.551-.54 1.058-1.432 1.058-2.611 0-1.113-.43-1.895-.914-2.38-1.058-1.069-2.689-1.069-3.901-1.069-.584 0-1.278.022-1.576.022-.275 0-.892-.022-1.4-.022-.142 0-.22.022-.22.088s.067.1.166.1c.143 0 .308.01.385.033.309.088.397.187.42.506.01.298.01.562.01 1.984v1.652Zm1.3-1.797c0-.738 0-1.51.011-1.829 0-.11.033-.154.122-.187.077-.044.396-.066.595-.066.76 0 1.818.1 2.71.893.43.374.904 1.145.904 2.335 0 .97-.199 1.808-.827 2.325-.584.485-1.234.64-2.115.64-.76 0-1.146-.199-1.267-.375-.078-.1-.1-.43-.11-.661a52.93 52.93 0 0 1-.023-1.896v-1.178ZM57.615 34.388c.088.242.143.341.264.341.144 0 .199-.11.375-.495.397-.86 1.697-4.177 1.862-4.573h.022l1.972 4.617c.144.341.21.451.342.451.143 0 .198-.11.309-.44.474-1.4 1.465-4.375 1.917-5.554.198-.54.308-.892.54-.98.11-.034.242-.044.342-.044.088 0 .132-.045.132-.11 0-.056-.066-.078-.176-.078-.32 0-.739.022-.805.022-.088 0-.529-.022-1.035-.022-.155 0-.232.022-.232.088 0 .055.077.1.165.1.386 0 .474.11.474.264 0 .132-.033.32-.1.54-.34 1.09-1.079 3.559-1.266 4.099h-.034l-1.939-4.617c-.12-.298-.21-.44-.32-.44-.087 0-.187.076-.286.34l-1.85 4.783h-.034c-.143-.43-1.025-3.262-1.19-3.879-.121-.43-.21-.738-.21-.86 0-.098.012-.153.1-.186a.629.629 0 0 1 .242-.044c.1 0 .177-.034.177-.1s-.067-.088-.21-.088c-.562 0-1.036.022-1.124.022-.088 0-.628-.022-1.124-.022-.143 0-.22.022-.22.088s.055.1.154.1c.088 0 .276.01.375.077.143.088.22.308.342.65l2.049 5.95ZM70.11 34.73c2.502 0 4.066-1.686 4.066-3.835s-1.52-3.504-3.966-3.504c-2.943 0-4.066 2.071-4.066 3.67 0 1.663 1.145 3.668 3.966 3.668Zm.397-.508c-1.83 0-2.931-1.52-2.931-3.448 0-2.314 1.267-2.887 2.347-2.887 1.564 0 2.81 1.278 2.81 3.35 0 2.666-1.543 2.985-2.226 2.985ZM76.203 31.887c0 .859 0 1.597-.044 1.994-.033.275-.088.452-.286.496a1.435 1.435 0 0 1-.342.033c-.12 0-.154.055-.154.1 0 .065.067.098.188.098.385 0 1.002-.033 1.19-.033.143 0 .947.033 1.51.033.12 0 .197-.033.197-.099 0-.044-.044-.1-.12-.1-.122 0-.332-.01-.474-.032-.298-.044-.342-.22-.375-.496-.044-.397-.055-1.124-.055-1.994v-.133c0-.055.033-.077.077-.077l.87.022c.066 0 .121.011.176.066.122.144.53.772.915 1.279.54.727.903 1.168 1.322 1.377.254.132.518.187 1.058.187h.925c.122 0 .188-.022.188-.099 0-.044-.044-.1-.12-.1-.079 0-.133 0-.233-.021-.154-.033-.495-.077-1.035-.617-.584-.584-1.267-1.433-2.127-2.49.948-.76 1.344-1.378 1.344-2.072 0-.628-.407-1.102-.683-1.29-.517-.34-1.223-.396-1.84-.396-.297 0-1.179.022-1.51.022-.198 0-.815-.022-1.322-.022-.143 0-.22.022-.22.088s.066.1.165.1c.143 0 .309.01.386.033.308.088.396.187.418.506.011.298.011.562.011 1.984v1.653Zm1.235-3.714c0-.077.022-.11.088-.132.099-.022.33-.033.573-.033.573 0 1.477.342 1.477 1.664 0 .771-.331 1.179-.629 1.388-.165.121-.297.154-.683.154-.242 0-.529-.022-.738-.088-.066-.033-.088-.066-.088-.165v-2.788ZM85.25 30.234c0-1.422 0-1.686.011-1.984.022-.33.1-.462.363-.506.122-.023.177-.034.276-.034.077 0 .132-.033.132-.099s-.066-.088-.209-.088c-.32 0-1.013.022-1.245.022-.231 0-.849-.022-1.356-.022-.143 0-.22.022-.22.088s.066.1.165.1c.144 0 .31.01.386.033.309.088.397.187.419.506.01.298.01.562.01 1.984v1.653c0 .859 0 1.597-.043 1.994-.033.275-.088.452-.287.496a1.425 1.425 0 0 1-.341.033c-.122 0-.155.055-.155.1 0 .065.066.098.188.098.385 0 1.003-.033 1.223-.033.243 0 .936.033 1.476.033.11 0 .188-.033.188-.099 0-.044-.055-.1-.132-.1-.122 0-.342-.01-.475-.032-.242-.044-.33-.22-.352-.485-.022-.408-.022-1.146-.022-2.005v-.849h.044l.1.132c.208.287 2.07 2.447 2.49 2.81.418.364.738.562 1.256.606.209.022.385.022.672.022h.848c.177 0 .232-.033.232-.099 0-.055-.055-.1-.133-.1-.11 0-.308 0-.595-.12-.517-.21-.892-.617-1.322-1.003-.374-.353-2.281-2.336-2.622-2.777.297-.341 1.74-1.708 2.05-1.994.407-.386.716-.584 1.024-.694.176-.067.419-.11.562-.11.088 0 .143-.034.143-.1s-.066-.088-.165-.088c-.297 0-.837.022-1.135.022-.265 0-.794-.022-1.003-.022-.099 0-.154.022-.154.088 0 .055.044.077.132.1.088.022.132.088.132.187 0 .165-.209.386-.484.694-.287.32-1.698 1.708-2.028 2.06h-.044v-.418ZM129.011 29.473c0-1.674 0-1.983.022-2.336.022-.385.11-.573.407-.628.133-.022.309-.033.43-.033.133 0 .199-.022.199-.099 0-.077-.077-.099-.232-.099-.43 0-1.234.033-1.499.033-.297 0-.991-.033-1.509-.033-.165 0-.243.022-.243.1 0 .076.067.098.188.098.143 0 .275.011.364.033.363.077.452.254.474.628.022.353.022.662.022 2.336v1.94c0 1.013 0 1.884-.056 2.347-.044.32-.099.562-.319.606a1.804 1.804 0 0 1-.397.044c-.132 0-.176.033-.176.088 0 .077.077.11.22.11.221 0 .507-.022.761-.022.264-.01.506-.01.627-.01.452 0 .849.01 1.345.032.496.011 1.068.033 1.862.033.573 0 .628-.055.694-.297.089-.32.166-1.146.166-1.267 0-.133-.011-.188-.088-.188-.089 0-.111.066-.122.165-.022.21-.154.518-.286.662-.276.297-.706.308-1.29.308-.859 0-1.146-.077-1.333-.242-.231-.199-.231-.959-.231-2.37v-1.939ZM137.22 32.25c.044 0 .077.011.099.066l.749 1.884c.044.11-.022.199-.088.21-.099.01-.122.044-.122.099 0 .066.111.066.287.077.816.022 1.521.022 1.862.022.364 0 .419-.022.419-.099 0-.066-.044-.1-.132-.1-.111 0-.221-.01-.364-.032-.176-.033-.451-.155-.826-1.003-.617-1.421-2.237-5.256-2.468-5.774-.099-.21-.143-.297-.287-.297-.099 0-.176.11-.286.374l-2.535 5.895c-.198.474-.364.76-.804.827-.088 0-.198.01-.286.01-.077 0-.11.045-.11.1 0 .077.055.1.176.1.506 0 1.024-.034 1.123-.034.309 0 .761.033 1.081.033.099 0 .154-.022.154-.099 0-.055-.022-.1-.143-.1h-.144c-.297 0-.385-.098-.385-.264 0-.11.044-.341.143-.573l.518-1.256c.022-.055.033-.066.088-.066h2.281Zm-2.083-.518c-.033 0-.055-.022-.033-.066l.937-2.369c.011-.033.022-.088.055-.088.022 0 .033.055.044.088l.915 2.38c.011.033 0 .055-.045.055h-1.873ZM142.2 29.506h.033c.187.166 1.212 1.3 2.27 2.314 1.014.981 2.226 2.138 2.832 2.7.099.1.231.198.397.198.077 0 .154-.088.154-.297l.11-5.906c.011-.53.088-.695.353-.772.121-.033.198-.033.297-.033.11 0 .165-.044.165-.099 0-.077-.088-.088-.22-.088-.474 0-.837.022-.948.022-.209 0-.727-.022-1.234-.022-.143 0-.242.011-.242.088 0 .055.033.1.154.1.132 0 .364 0 .507.054.231.089.319.254.33.827l.1 4.165h-.045c-.143-.132-1.432-1.454-2.093-2.105-1.41-1.377-2.865-2.864-2.986-2.986-.165-.165-.297-.308-.418-.308-.1 0-.166.132-.166.32l-.088 5.553c-.011.815-.044 1.069-.297 1.135a2.006 2.006 0 0 1-.441.044c-.089 0-.155.044-.155.099 0 .088.088.1.221.1.496 0 .959-.034 1.047-.034.176 0 .627.033 1.256.033.132 0 .22-.022.22-.1 0-.054-.055-.098-.165-.098-.155 0-.342-.011-.507-.066-.188-.066-.309-.287-.331-1.014l-.11-3.824ZM151.191 31.887c0 .859 0 1.597-.044 1.994-.033.275-.088.452-.286.496a1.425 1.425 0 0 1-.341.033c-.122 0-.155.055-.155.099 0 .066.066.1.188.1.198 0 .44-.012.671-.023.232 0 .441-.01.551-.01.243 0 .595.021.981.054.386.022.804.055 1.157.055 1.785 0 2.81-.66 3.251-1.102.551-.54 1.057-1.432 1.057-2.611 0-1.113-.429-1.895-.914-2.38-1.058-1.069-2.689-1.069-3.901-1.069-.584 0-1.278.022-1.576.022-.275 0-.892-.022-1.399-.022-.143 0-.22.022-.22.088s.066.1.165.1c.144 0 .309.01.386.033.308.088.396.187.418.506.011.298.011.562.011 1.984v1.652Zm1.301-1.797c0-.738 0-1.51.011-1.829 0-.11.033-.154.121-.187.077-.044.397-.066.595-.066.76 0 1.818.1 2.71.893.43.374.904 1.145.904 2.335 0 .97-.198 1.808-.827 2.325-.583.485-1.233.64-2.115.64-.76 0-1.146-.199-1.267-.375-.077-.1-.099-.43-.11-.661a52.93 52.93 0 0 1-.022-1.896v-1.178ZM161.615 34.73c.518 0 1.157-.056 1.62-.386.705-.496.97-1.058.97-1.752 0-.849-.397-1.565-1.675-2.27l-.397-.22c-.871-.485-1.025-.816-1.025-1.235 0-.639.628-1.002 1.322-1.002.628 0 .937.264 1.08.44.21.243.254.53.254.617 0 .11.033.166.099.166.077 0 .121-.1.121-.298 0-.738.033-1.002.033-1.124 0-.066-.044-.099-.132-.12a5.747 5.747 0 0 0-1.377-.155c-1.345 0-2.447.738-2.447 1.884 0 .827.375 1.455 1.521 2.127l.562.33c.859.507.958.915.958 1.322 0 .662-.506 1.19-1.343 1.19-.607 0-1.334-.23-1.543-.925a1.748 1.748 0 0 1-.088-.485c0-.066-.011-.154-.1-.154-.077 0-.121.1-.121.242-.011.155-.055.739-.055 1.245 0 .21.033.254.187.32.419.187 1.014.242 1.576.242ZM170.221 34.73c.628 0 1.366-.056 1.752-.21.165-.066.209-.11.253-.275.099-.32.209-1.135.209-1.246 0-.077-.044-.165-.11-.165-.077 0-.099.044-.121.188-.033.176-.165.44-.33.628-.386.43-.86.495-1.72.495-1.299 0-3.018-1.057-3.018-3.283 0-.915.176-1.818.892-2.435.441-.375.981-.53 1.829-.53.893 0 1.543.232 1.873.552.243.242.364.573.375.87 0 .121.022.198.099.198.088 0 .121-.099.132-.23.011-.188.011-.706.033-1.015.022-.33.044-.44.044-.517 0-.056-.033-.1-.143-.11-.286-.034-.606-.1-.969-.155a9.948 9.948 0 0 0-1.411-.1c-1.443 0-2.369.376-3.074.993-.926.826-1.135 1.928-1.135 2.567 0 .904.253 1.961 1.212 2.766.881.738 2.006 1.013 3.328 1.013ZM177.427 32.25c.044 0 .077.011.099.066l.75 1.884c.044.11-.022.199-.088.21-.1.01-.122.044-.122.099 0 .066.111.066.287.077.815.022 1.52.022 1.862.022.364 0 .419-.022.419-.099 0-.066-.044-.1-.132-.1-.111 0-.221-.01-.364-.032-.177-.033-.452-.155-.827-1.003-.617-1.421-2.237-5.256-2.468-5.774-.099-.21-.143-.297-.286-.297-.1 0-.177.11-.287.374l-2.534 5.895c-.198.474-.364.76-.805.827-.088 0-.198.01-.286.01-.077 0-.11.045-.11.1 0 .077.055.1.176.1.507 0 1.025-.034 1.124-.034.309 0 .76.033 1.08.033.099 0 .154-.022.154-.099 0-.055-.022-.1-.143-.1h-.144c-.297 0-.385-.098-.385-.264 0-.11.044-.341.143-.573l.518-1.256c.022-.055.033-.066.088-.066h2.281Zm-2.082-.518c-.034 0-.056-.022-.033-.066l.936-2.369c.011-.033.022-.088.055-.088.022 0 .033.055.044.088l.915 2.38c.011.033 0 .055-.044.055h-1.873ZM181.912 31.887c0 .859 0 1.597-.044 1.994-.033.275-.089.452-.287.496a1.424 1.424 0 0 1-.341.033c-.122 0-.155.055-.155.1 0 .065.066.098.188.098.385 0 1.002-.033 1.223-.033.253 0 .936.033 1.586.033.1 0 .177-.033.177-.099 0-.044-.044-.1-.155-.1-.143 0-.352-.01-.495-.032-.287-.044-.342-.22-.375-.485-.044-.408-.044-1.146-.044-2.005v-3.714c0-.099.022-.154.077-.176.088-.033.275-.044.419-.044.22 0 .617.044.97.352.54.463.573 1.08.573 1.389 0 .959-.761 1.52-1.301 1.52-.209 0-.319.045-.319.122 0 .066.066.099.121.099.044.01.242.01.286.01 1.378 0 2.435-.947 2.435-2.269 0-.507-.275-.926-.485-1.124-.154-.132-.594-.529-1.807-.529-.44 0-1.211.022-1.608.022-.276 0-.893-.022-1.4-.022-.143 0-.22.022-.22.088s.066.1.165.1c.144 0 .309.01.386.033.308.088.397.187.419.506.011.298.011.562.011 1.984v1.653ZM188.699 31.887c0 .903 0 1.652-.044 2.038-.033.276-.088.408-.287.452a1.424 1.424 0 0 1-.341.033c-.121 0-.154.055-.154.1 0 .065.066.098.187.098.386 0 1.047-.033 1.267-.033.265 0 .926.033 1.565.033.11 0 .187-.033.187-.099 0-.044-.044-.1-.154-.1-.143 0-.364-.01-.496-.032-.286-.044-.352-.188-.385-.441-.044-.397-.044-1.146-.044-2.05v-1.652c0-1.422-.001-1.686.022-1.984.022-.33.099-.462.363-.506.11-.023.187-.034.286-.034.1 0 .155-.022.155-.11 0-.055-.077-.077-.199-.077-.374 0-1.002.022-1.244.022-.276 0-.937-.022-1.301-.022-.154 0-.231.022-.231.077 0 .088.055.11.154.11.121 0 .242.011.352.044.21.067.309.177.331.496.011.298.011.562.011 1.984v1.653ZM193.9 29.506h.033c.188.166 1.212 1.3 2.27 2.314 1.014.981 2.226 2.138 2.832 2.7.099.1.231.198.397.198.077 0 .154-.088.154-.297l.11-5.906c.011-.53.088-.695.352-.772.122-.033.199-.033.298-.033.11 0 .165-.044.165-.099 0-.077-.088-.088-.22-.088-.474 0-.837.022-.947.022-.21 0-.728-.022-1.235-.022-.143 0-.242.011-.242.088 0 .055.033.1.154.1.132 0 .364 0 .507.054.232.089.32.254.331.827l.099 4.165h-.044c-.143-.132-1.433-1.454-2.094-2.105-1.411-1.377-2.865-2.864-2.986-2.986-.165-.165-.298-.308-.419-.308-.099 0-.165.132-.165.32l-.088 5.553c-.011.815-.045 1.069-.298 1.135a1.991 1.991 0 0 1-.44.044c-.088 0-.154.044-.154.099 0 .088.088.1.22.1.495 0 .958-.034 1.046-.034.177 0 .629.033 1.257.033.132 0 .22-.022.22-.1 0-.054-.055-.098-.165-.098-.154 0-.342-.011-.507-.066-.187-.066-.309-.287-.331-1.014l-.11-3.824ZM208.698 32.944c0-.463 0-.837.011-1.124.011-.33.11-.462.375-.506.11-.022.187-.034.264-.034.066 0 .121-.044.121-.099 0-.077-.066-.088-.198-.088-.319 0-.826.022-1.134.022-.287 0-.981-.022-1.488-.022-.132 0-.21.011-.21.088 0 .055.067.1.155.1.132 0 .297.01.374.033.309.088.408.187.419.506.011.287.011.64.011 1.102v.86c0 .165-.044.264-.187.33-.232.1-.43.1-.683.1-2.072 0-3.372-1.466-3.372-3.482 0-1.146.353-1.84.892-2.281.672-.54 1.345-.551 1.874-.551 1.09 0 1.818.419 2.104.716.254.264.309.562.331.771.011.077.033.121.099.121.077 0 .132-.066.132-.209 0-1.179.066-1.432.066-1.543 0-.066-.022-.099-.132-.11a7.737 7.737 0 0 1-.771-.099 11.06 11.06 0 0 0-1.719-.154c-.816 0-1.686.066-2.611.606-.893.518-1.697 1.565-1.697 3.063 0 2.59 2.104 3.67 4.484 3.67.76 0 1.719-.1 2.369-.42.121-.065.121-.076.121-.33v-1.036Z"/><path fill="#231F20" d="M2.629 14.048c0 2.885 0 5.26-.15 6.521-.12.872-.27 1.533-.872 1.653-.27.06-.631.12-.901.12-.18 0-.24.09-.24.18 0 .18.15.241.48.241.45 0 1.142-.06 1.743-.06.631-.03 1.142-.03 1.202-.03.12 0 .962.03 1.833.09.872.03 1.833.09 2.164.09 5.139 0 7.663-3.336 7.663-6.551 0-3.516-2.975-5.65-5.199-6.34 1.412-1.473 2.825-2.946 2.825-5.41 0-1.503-1.082-4.508-6.01-4.508-1.383 0-2.555.09-3.276.09-.15 0-2.043-.09-3.396-.09-.33 0-.48.06-.48.24 0 .12.12.181.24.181.27 0 .781.03 1.022.09.991.21 1.232.691 1.292 1.713.06.962.06 1.803.06 6.491v5.29ZM5.033 1.367c0-.18.09-.27.36-.331.481-.12 1.112-.15 1.443-.15 2.945 0 4.057 2.674 4.057 5.169 0 1.232-.45 2.313-1.082 3.035-.631.72-1.052.781-2.735.781-1.111 0-1.652-.09-1.833-.12-.15-.06-.21-.12-.21-.33V1.366Zm0 9.526c0-.15.06-.21.18-.21.451 0 1.954 0 2.344.06.721.09 1.473.18 2.495.871 2.313 1.593 2.915 4.207 2.915 6.01 0 3.396-2.615 4.268-4.238 4.268-.54 0-1.833-.06-2.644-.451-.932-.451-.932-.872-1.022-2.344-.03-.451-.03-4.177-.03-6.491v-1.713ZM20.179 13.056c0 4.598 3.095 10.037 10.337 10.037 6.371 0 10.608-4.718 10.608-10.427 0-5.95-4.507-9.587-10.458-9.587-7.302 0-10.487 5.86-10.487 9.977Zm2.734-.69c0-5.56 3.186-8.325 7.603-8.325 4.177 0 7.904 3.216 7.904 9.346 0 7.393-4.779 8.655-7.153 8.655-4.778 0-8.354-3.727-8.354-9.677ZM49.689 23.094c1.442 0 3.095-.18 4.207-.902 1.893-1.232 2.464-2.855 2.464-4.357 0-2.194-1.112-3.967-4.327-6.16l-.751-.512c-2.615-1.773-3.426-2.704-3.426-4.327 0-1.803 1.592-2.765 3.516-2.765 2.374 0 3.245.962 3.425 1.262.15.27.361.962.391 1.262.03.21.06.331.24.331s.211-.18.211-.57c0-1.744.12-2.585.12-2.706 0-.15-.06-.18-.27-.18-.21 0-.421 0-.932-.12a12.8 12.8 0 0 0-2.735-.3c-3.485 0-5.86 1.803-5.86 4.808 0 1.773.932 3.335 3.787 5.469l1.202.901c2.344 1.743 3.336 2.615 3.336 4.448 0 1.923-1.353 3.396-3.967 3.396-1.773 0-3.757-.661-4.177-2.524-.09-.361-.09-.722-.09-.932 0-.21-.09-.3-.24-.3-.151 0-.211.15-.211.42-.03.42-.15 1.443-.15 2.705 0 .69.03.781.39.961 1.082.511 2.615.692 3.847.692ZM66.037 23.094c1.442 0 3.095-.18 4.207-.902 1.893-1.232 2.464-2.855 2.464-4.357 0-2.194-1.112-3.967-4.328-6.16l-.75-.512c-2.615-1.773-3.426-2.704-3.426-4.327 0-1.803 1.592-2.765 3.516-2.765 2.374 0 3.245.962 3.426 1.262.15.27.36.962.39 1.262.03.21.06.331.24.331.181 0 .21-.18.21-.57 0-1.744.121-2.585.121-2.706 0-.15-.06-.18-.27-.18-.21 0-.421 0-.932-.12-.631-.15-1.683-.3-2.735-.3-3.486 0-5.86 1.803-5.86 4.808 0 1.773.932 3.335 3.787 5.469l1.202.901c2.344 1.743 3.336 2.615 3.336 4.448 0 1.923-1.353 3.396-3.968 3.396-1.772 0-3.756-.661-4.176-2.524-.09-.361-.09-.722-.09-.932 0-.21-.09-.3-.241-.3-.15 0-.21.15-.21.42-.03.42-.15 1.443-.15 2.705 0 .69.03.781.39.961 1.082.511 2.615.692 3.847.692ZM82.565 10.833c0-3.967 0-4.688.03-5.5.06-.901.21-1.262.932-1.412.3-.06.48-.06.66-.06.09 0 .211-.12.211-.21 0-.15-.12-.21-.42-.21-.812 0-2.525.06-2.645.06-.15 0-1.803-.06-2.675-.06-.3 0-.42.06-.42.21 0 .09.09.21.21.21.18 0 .51.03.811.09.571.12.782.51.842 1.382.06.812.06 1.533.06 5.5v4.507c0 2.465-.03 4.478-.15 5.53-.09.751-.181 1.232-.691 1.352-.24.06-.571.12-.812.12-.15 0-.21.12-.21.21 0 .151.15.211.42.211.812 0 2.464-.09 2.615-.09.12 0 1.833.09 3.305.09.301 0 .42-.09.42-.21 0-.09-.059-.21-.21-.21-.24 0-.81-.06-1.201-.12-.782-.121-.872-.602-.962-1.353-.12-1.052-.12-3.065-.12-5.53v-4.507Z"/><path fill="#9F0000" d="m104.497 16.353 1.153 1.213c.14-.017.277-.025.406-.025.394 0 .757.03 1.09.087l-.033-1.547c-.966.001-1.837.099-2.616.272ZM108.498 16.1l-.008 1.905c.524.265.927.605 1.228.966.729.862.961 1.923.961 2.785 0 .498.034.63.233.63.198 0 .331-.066.398-.563.099-.498.364-3.15.364-4.245 0-.398 0-.663-.564-.862-.629-.257-1.554-.497-2.612-.617ZM103.45 18.561a427.81 427.81 0 0 1-1.366-1.372c-2.142 1.247-3.065 3.25-3.044 4.909.033 1.492.299 2.852 1.692 4.709-1.99.961-5.406 3.979-5.406 7.858 0 2.885 2.123 7.329 9.219 7.329 4.543 0 6.765-2.023 7.858-3.018 2.852 2.189 4.046 2.553 7.826 2.553h2.554c.729 0 .995-.099.995-.298 0-.265-.166-.298-.465-.298-.663 0-2.487-.53-3.548-1.161-.895-.53-2.387-1.426-4.609-3.25 1.89-2.221 3.25-5.305 3.25-7.858 0-.399-.498-.597-1.128-.664a37.152 37.152 0 0 0-3.979-.232c-.265 0-.531.066-.531.332 0 .199.2.265.398.265.498 0 1.194.1 1.625.498.497.43.63 1.027.63 1.525 0 2.022-.928 4.178-1.591 5.106-.631-.563-4.709-4.244-5.836-5.537-2.653-2.951-5.505-5.604-5.505-8.721 0-1.21.398-2.079.961-2.675Zm2.222 21.344c-3.448 0-6.366-2.653-6.366-6.798 0-2.653 1.16-4.211 2.288-5.04.563.829 2.686 3.216 3.548 4.145.862.928 4.045 4.045 5.968 5.703-.696.663-2.885 1.99-5.438 1.99Z"/><path fill="#231F20" d="M129.505 20.66c0 .48-.21.6-.541.78-.692.391-1.923.482-2.855.482-2.434 0-4.658-.722-6.762-2.675-.931-.872-2.794-3.456-2.794-7.062 0-2.975 1.081-5.259 2.614-6.431 2.014-1.533 3.937-1.653 5.53-1.653 3.426 0 5.439 1.022 6.1 1.984.421.6.571 1.352.601 1.682 0 .24.03.391.18.391.18 0 .301-.12.301-.54 0-2.555.15-3.246.15-3.607 0-.12-.06-.24-.331-.24-.66 0-1.592-.15-2.133-.27-.511-.121-2.374-.422-4.057-.422-2.013 0-4.658.18-7.032 1.623-2.344 1.413-4.418 4.298-4.418 8.384 0 3.186 1.533 5.92 3.156 7.273 2.945 2.494 6.701 2.734 8.715 2.734 1.532 0 3.937-.27 5.619-1.141.331-.18.361-.21.361-1.383v-2.855c0-1.081 0-1.833.03-2.644.06-.902.271-1.292.991-1.412.301-.06.481-.06.662-.06.09 0 .21-.12.21-.211 0-.18-.12-.21-.42-.21-.812 0-2.465.06-2.585.06-.15 0-1.924-.06-3.126-.06-.3 0-.42.03-.42.21 0 .09.12.21.21.21.24 0 .692.03.902.06 1.081.21 1.142.511 1.142 2.585v4.417ZM156.611 10.833c0-3.967 0-4.688.06-5.5.06-.901.21-1.262.902-1.412.33-.06.48-.06.661-.06.12 0 .24-.12.24-.21 0-.15-.151-.21-.451-.21-.781 0-2.464.06-2.614.06-.12 0-1.833-.06-3.005-.06-.301 0-.421.06-.421.21 0 .09.09.21.21.21.241 0 .691.03.902.06.871.12.992.54 1.052 1.412.03.812.06 1.593.06 5.56v.54c0 .151-.06.151-.151.151h-11.028c-.09 0-.15 0-.15-.15v-.541c0-3.967 0-4.748.03-5.56.06-.901.21-1.262.931-1.412.3-.06.481-.06.661-.06.091 0 .21-.12.21-.21 0-.15-.119-.21-.42-.21-.811 0-2.494.06-2.614.06-.151 0-1.834-.06-3.036-.06-.3 0-.42.06-.42.21 0 .09.12.21.21.21.24 0 .691.03.901.06.872.12 1.022.54 1.082 1.412.06.812.06 1.533.06 5.5v4.507c0 2.465 0 4.478-.15 5.53-.12.751-.18 1.232-.691 1.352-.24.06-.571.12-.811.12-.151 0-.211.12-.211.21 0 .151.151.211.421.211.811 0 2.494-.09 2.645-.09.12 0 1.803.09 3.275.09.301 0 .421-.09.421-.21 0-.09-.061-.21-.21-.21-.241 0-.812-.06-1.203-.12-.781-.121-.871-.602-.962-1.353-.119-1.052-.119-3.005-.119-5.47v-2.554c0-.12.06-.15.15-.15h11.028c.091 0 .151.03.151.15V15.4c0 2.465 0 4.388-.12 5.44-.091.751-.181 1.262-.722 1.382-.24.06-.541.12-.781.12-.15 0-.21.12-.21.21 0 .151.12.211.42.211.782 0 2.495-.09 2.615-.09.15 0 1.833.09 3.275.09.301 0 .451-.09.451-.21 0-.09-.06-.21-.241-.21-.21 0-.811-.06-1.171-.12-.812-.121-.872-.602-.962-1.353-.12-1.052-.15-3.065-.15-5.53v-4.507ZM164.334 19.938c-.511 1.293-1.022 2.194-2.224 2.344-.21.03-.601.06-.781.06-.121 0-.24.09-.24.21 0 .151.18.211.51.211 1.082 0 2.405-.09 2.675-.09.301 0 1.743.09 2.374.09.241 0 .39-.06.39-.21 0-.12-.06-.21-.27-.21h-.24c-.451 0-.902-.181-.902-.692 0-.45.15-1.082.391-1.713l1.502-4.087c.06-.15.151-.21.271-.21h6.1c.151 0 .181.03.241.15l2.374 5.86c.18.42-.09.631-.241.691-.12.06-.18.06-.18.18 0 .15.421.15.932.181 1.832.06 3.786.06 4.176.06.301 0 .602-.06.602-.21s-.18-.21-.331-.21c-.271 0-.661-.03-1.052-.15-.571-.181-1.292-.512-2.253-2.796-1.624-3.876-5.86-14.424-6.341-15.506-.271-.571-.361-.932-.631-.932-.181 0-.301.15-.631.992l-6.221 15.987Zm3.816-5.349c-.089 0-.119-.06-.089-.18l2.463-7.002c.151-.39.301-.39.451 0l2.615 7.002c.03.12.03.18-.09.18h-5.35ZM204.572 3.77c-.059-.48-.21-.69-.39-.69-.181 0-.301.18-.421.42l-7.693 15.837-7.994-15.867c-.15-.3-.36-.39-.541-.39-.15 0-.27.18-.3.45L185.31 20.21c-.121.961-.15 1.893-1.022 2.043-.391.06-.571.09-.782.09-.149 0-.27.09-.27.18 0 .18.181.241.451.241.721 0 1.984-.09 2.224-.09.21 0 1.472.09 2.464.09.3 0 .481-.06.481-.24 0-.09-.121-.18-.211-.18-.18 0-.571-.03-1.021-.151-.391-.09-.632-.33-.632-.721 0-.421 0-.902.03-1.293l1.023-11.54h.119c.452 1.053 2.585 5.35 3.366 6.973.661 1.382 2.404 4.658 3.096 5.92.51.931.661 1.172.901 1.172.241 0 .391-.24.932-1.352l6.37-13.043h.06l1.263 12.922c.06.481.03.872-.121.902-.119.03-.18.12-.18.21 0 .12.12.21.751.27.962.09 3.907.151 4.508.151.301 0 .541-.09.541-.24 0-.12-.09-.18-.21-.18-.271 0-.962 0-1.713-.241-1.082-.36-1.262-1.743-1.353-2.645l-1.803-15.686ZM92.544 7.244c.812.902 3.786 4.027 6.852 7.243 2.795 2.914 6.611 6.67 6.882 6.911 1.472 1.353 1.743 1.563 2.013 1.563.18 0 .21-.15.21-1.833l.061-14.966c0-1.532.06-2.043.931-2.223.301-.06.511-.06.631-.06.181 0 .301-.15.301-.24 0-.151-.211-.181-.481-.181-1.082 0-1.953.06-2.254.06-.3 0-1.563-.06-2.765-.06-.3 0-.511.03-.511.18 0 .09.03.24.211.24.21 0 .811.03 1.292.12.811.151.962.722.992 2.375l.27 12.801c-.811-.84-3.636-3.876-6.251-6.58-4.087-4.208-7.933-8.295-8.354-8.716-.27-.27-.721-.78-1.021-.78-.21 0-.361.27-.361 1.291v14.635c0 2.314-.09 3.005-.751 3.186-.391.12-.872.15-1.082.15-.12 0-.21.09-.21.21 0 .18.15.21.42.21 1.202 0 2.314-.09 2.555-.09.24 0 1.291.09 2.794.09.3 0 .481-.06.481-.21 0-.12-.09-.21-.21-.21-.24 0-.842-.03-1.322-.15-.722-.18-.962-.812-1.023-2.915l-.3-12.05Z"/></g><defs><clipPath id="a"><path fill="#fff" d="M0 0h209.694v42H0z"/></clipPath></defs></svg>