<?xml version="1.0" standalone="no"?>
<!DOCTYPE svg PUBLIC "-//W3C//DTD SVG 20010904//EN"
 "http://www.w3.org/TR/2001/REC-SVG-20010904/DTD/svg10.dtd">
<svg version="1.0" xmlns="http://www.w3.org/2000/svg"
 width="700.000000pt" height="700.000000pt" viewBox="0 0 700.000000 700.000000"
 preserveAspectRatio="xMidYMid meet">
<metadata>
Created by potrace 1.14, written by Peter Selinger 2001-2017
</metadata>
<g transform="translate(0.000000,700.000000) scale(0.100000,-0.100000)"
fill="#000000" stroke="none">
<path d="M0 3500 l0 -3500 3500 0 3500 0 0 3500 0 3500 -3500 0 -3500 0 0
-3500z m3910 2530 c715 -45 1171 -266 1374 -668 40 -79 82 -216 100 -323 19
-114 22 -342 5 -449 -41 -268 -209 -523 -464 -706 -102 -73 -304 -170 -472
-227 -139 -47 -145 -56 -33 -57 133 -1 394 -53 548 -109 419 -153 688 -484
742 -915 17 -136 7 -400 -20 -528 -74 -349 -261 -636 -538 -826 -188 -129
-469 -244 -722 -296 -299 -62 -243 -59 -1597 -63 l-1243 -4 0 166 c0 147 2
165 17 165 9 0 107 7 217 16 234 18 275 31 313 99 l23 40 0 2098 c0 2284 4
2133 -56 2189 -40 36 -80 44 -299 58 -104 7 -196 14 -202 16 -10 2 -13 45 -13
169 l0 165 1078 0 c625 0 1146 -4 1242 -10z"/>
<path d="M3130 5673 c-25 -1 -78 -5 -117 -9 l-73 -6 0 -973 0 -974 57 -7 c86
-10 502 3 629 21 423 58 702 222 837 490 90 180 129 482 92 711 -30 185 -93
318 -209 441 -206 219 -510 316 -979 311 -106 -1 -212 -3 -237 -5z"/>
<path d="M3340 3330 c-52 -4 -164 -14 -247 -20 l-153 -13 0 -1018 0 -1018 33
-5 c197 -30 690 -25 926 9 554 80 850 305 946 720 25 111 38 267 32 400 -23
540 -286 827 -847 927 -129 23 -517 33 -690 18z"/>
</g>
</svg>
